<svg width="24" height="24" viewBox="0 0 24 24" fill="none" xmlns="http://www.w3.org/2000/svg">
<path d="M7 18C5.75228 18 4.55566 17.5259 3.67339 16.682C2.79111 15.8381 2.29546 14.6935 2.29546 13.5C2.29546 12.3065 2.79111 11.1619 3.67339 10.318C4.55566 9.47411 5.75228 9 7 9V9C7.29469 7.68718 8.15676 6.53348 9.39659 5.79272C10.0105 5.42592 10.6986 5.17155 11.4218 5.04411C12.1449 4.91668 12.8888 4.91868 13.6111 5.05C14.3334 5.18132 15.0198 5.43939 15.6313 5.80948C16.2427 6.17957 16.7672 6.65442 17.1748 7.20693C17.5823 7.75944 17.8649 8.37878 18.0065 9.0296C18.1481 9.68041 18.1459 10.35 18 11H19C19.9283 11 20.8185 11.3688 21.4749 12.0251C22.1313 12.6815 22.5 13.5717 22.5 14.5C22.5 15.4283 22.1313 16.3185 21.4749 16.9749C20.8185 17.6313 19.9283 18 19 18H18" stroke="currentColor" stroke-width="2" stroke-linecap="round" stroke-linejoin="round"/>
<path d="M9 15L12 12L15 15" stroke="currentColor" stroke-width="2" stroke-linecap="round" stroke-linejoin="round"/>
<path d="M12 12V21" stroke="currentColor" stroke-width="2" stroke-linecap="round" stroke-linejoin="round"/>
</svg>
