<svg width="24" height="24" viewBox="0 0 24 24" fill="none" xmlns="http://www.w3.org/2000/svg">
<mask id="path-2-outside-1" maskUnits="userSpaceOnUse" x="6" y="4" width="12" height="16" fill="black">
<rect fill="currentColor" x="6" y="4" width="12" height="16"/>
<path fill-rule="evenodd" clip-rule="evenodd" d="M10 5H7V19H10V5ZM17 5H14V19H17V5Z"/>
</mask>
<path fill-rule="evenodd" clip-rule="evenodd" d="M10 5H7V19H10V5ZM17 5H14V19H17V5Z" fill="currentColor"/>
<path d="M7 5V4H6V5H7ZM10 5H11V4H10V5ZM7 19H6V20H7V19ZM10 19V20H11V19H10ZM14 5V4H13V5H14ZM17 5H18V4H17V5ZM14 19H13V20H14V19ZM17 19V20H18V19H17ZM7 6H10V4H7V6ZM8 19V5H6V19H8ZM10 18H7V20H10V18ZM9 5V19H11V5H9ZM14 6H17V4H14V6ZM15 19V5H13V19H15ZM17 18H14V20H17V18ZM16 5V19H18V5H16Z" fill="black" fill-opacity="0.06" mask="url(#path-2-outside-1)"/>
</svg>
