<svg width="64" height="40" viewBox="0 0 64 40" fill="none" xmlns="http://www.w3.org/2000/svg">
<path d="M6.79213 30.02C5.76813 28.644 4.98413 27.044 4.44013 25.22C3.91213 23.396 3.64813 21.652 3.64813 19.988C3.64813 16.1 4.61613 12.764 6.55213 9.98H7.75213C6.88813 11.372 6.22413 12.932 5.76013 14.66C5.31213 16.388 5.08813 18.164 5.08813 19.988C5.08813 21.764 5.34413 23.54 5.85612 25.316C6.38413 27.092 7.09613 28.66 7.99213 30.02H6.79213ZM13.1671 30.02C12.1431 28.644 11.3591 27.044 10.8151 25.22C10.2871 23.396 10.0231 21.652 10.0231 19.988C10.0231 16.1 10.9911 12.764 12.9271 9.98H14.1271C13.2631 11.372 12.5991 12.932 12.1351 14.66C11.6871 16.388 11.4631 18.164 11.4631 19.988C11.4631 21.764 11.7191 23.54 12.2311 25.316C12.7591 27.092 13.4711 28.66 14.3671 30.02H13.1671ZM19.5421 30.02C18.5181 28.644 17.7341 27.044 17.1901 25.22C16.6621 23.396 16.3981 21.652 16.3981 19.988C16.3981 16.1 17.3661 12.764 19.3021 9.98H20.5021C19.6381 11.372 18.9741 12.932 18.5101 14.66C18.0621 16.388 17.8381 18.164 17.8381 19.988C17.8381 21.764 18.0941 23.54 18.6061 25.316C19.1341 27.092 19.8461 28.66 20.7421 30.02H19.5421ZM43.2669 30.02C44.1629 28.66 44.8669 27.092 45.3789 25.316C45.9069 23.54 46.1709 21.764 46.1709 19.988C46.1709 18.164 45.9389 16.388 45.4749 14.66C45.0269 12.932 44.3709 11.372 43.5069 9.98H44.7069C46.6429 12.764 47.6109 16.1 47.6109 19.988C47.6109 21.652 47.3389 23.396 46.7949 25.22C46.2669 27.044 45.4909 28.644 44.4669 30.02H43.2669ZM49.6419 30.02C50.5379 28.66 51.2419 27.092 51.7539 25.316C52.2819 23.54 52.5459 21.764 52.5459 19.988C52.5459 18.164 52.3139 16.388 51.8499 14.66C51.4019 12.932 50.7459 11.372 49.8819 9.98H51.0819C53.0179 12.764 53.9859 16.1 53.9859 19.988C53.9859 21.652 53.7139 23.396 53.1699 25.22C52.6419 27.044 51.8659 28.644 50.8419 30.02H49.6419ZM56.0169 30.02C56.9129 28.66 57.6169 27.092 58.1289 25.316C58.6569 23.54 58.9209 21.764 58.9209 19.988C58.9209 18.164 58.6889 16.388 58.2249 14.66C57.7769 12.932 57.1209 11.372 56.2569 9.98H57.4569C59.3929 12.764 60.3609 16.1 60.3609 19.988C60.3609 21.652 60.0889 23.396 59.5449 25.22C59.0169 27.044 58.2409 28.644 57.2169 30.02H56.0169Z" fill="black"/>
</svg>
