<svg width="24" height="24" viewBox="0 0 24 24" fill="none" xmlns="http://www.w3.org/2000/svg">
    <g clip-path="url(#clip0)">
        <g filter="url(#filter0_d)">
            <path d="M20.5 11.134C21.1667 11.5189 21.1667 12.4811 20.5 12.866L8.5 19.7942C7.83333 20.1791 7 19.698 7 18.9282V5.0718C7 4.302 7.83333 3.82087 8.5 4.20577L20.5 11.134Z" fill="white"/>
            <path d="M20.75 13.299C21.75 12.7217 21.75 11.2783 20.75 10.701L8.75 3.77276C7.75 3.19541 6.5 3.9171 6.5 5.0718V18.9282C6.5 20.0829 7.75 20.8046 8.75 20.2272L20.75 13.299Z" stroke="black" stroke-opacity="0.06"/>
        </g>
    </g>
    <defs>
        <filter id="filter0_d" x="-2" y="-4.93119" width="32" height="33.8624" filterUnits="userSpaceOnUse" color-interpolation-filters="sRGB">
            <feFlood flood-opacity="0" result="BackgroundImageFix"/>
            <feColorMatrix in="SourceAlpha" type="matrix" values="0 0 0 0 0 0 0 0 0 0 0 0 0 0 0 0 0 0 127 0"/>
            <feOffset/>
            <feGaussianBlur stdDeviation="4"/>
            <feColorMatrix type="matrix" values="0 0 0 0 0 0 0 0 0 0 0 0 0 0 0 0 0 0 0.32 0"/>
            <feBlend mode="normal" in2="BackgroundImageFix" result="effect1_dropShadow"/>
            <feBlend mode="normal" in="SourceGraphic" in2="effect1_dropShadow" result="shape"/>
        </filter>
        <clipPath id="clip0">
            <path d="M0 0H24V24H0V0Z" fill="white"/>
        </clipPath>
    </defs>
</svg>
